Anonyma - Eine Frau in Berlin (original title)

A woman tries to survive the invasion of Berlin by the Soviet troops during the last days of World War II.
 
http://www.imdb.com/title/tt1035730/

Subtitles (srt) : Dutch, English.

Covers included.

Berlijn, 1945. Een jonge Duitse vrouw, Anonyma, probeert te overleven na de invasie van de Sovjet troepen in de laatste dagen van de Tweede Wereldoorlog. Samen met hoofdzakelijk andere vrouwen schuilt ze in een kelder, waar ze veelal worden verkracht door de Sovjet troepen. Anonyma besluit een liefdesrelatie aan te gaan met een Sovjet officier, om zodoende de andere vrouwen en zichzelf te beschermen. Gebaseerd op het dagboek Anonyma - Eine Frau in Berlin.
 
http://www.moviemeter.nl/film/53527

Ondertitels (srt) : Nederlands, Engels.

Hoesjes bijgevoegd.

General
Complete name                    : A Woman in Berlin-AC3-XviD-BRRip 2008 2Lions-Team\A Woman in Berlin-AC3-XviD-BRRip 2008 2Lions-Team.avi
Format                           : AVI
Format/Info                      : Audio Video Interleave
File size                        : 1.46 GiB
Duration                         : 2h 11mn
Overall bit rate                 : 1 593 Kbps
Writing application              : VirtualDubMod 1.5.4.1 (build 2178/release)
Writing library                  : VirtualDubMod build 2178/release
Source                           : A.Woman.In.Berlin.2008.720p.BluRay.x264-hV 

Video
ID                               : 0
Format                           : MPEG-4 Visual
Format profile                   : Simple@L3
Format settings, BVOP            : No
Format settings, QPel            : No
Format settings, GMC             : No warppoints
Format settings, Matrix          : Default (H.263)
Codec ID                         : XVID
Codec ID/Hint                    : XviD
Duration                         : 2h 11mn
Bit rate                         : 1 136 Kbps
Width                            : 720 pixels
Height                           : 304 pixels
Display aspect ratio             : 2.35:1
Frame rate                       : 23.976 fps
Resolution                       : 8 bits
Colorimetry                      : 4:2:0
Scan type                        : Progressive
Bits/(Pixel*Frame)               : 0.216
Stream size                      : 1.04 GiB (71%)
Writing library                  : XviD 1.1.2 (UTC 2006-11-01)

Audio
ID                               : 1
Format                           : AC-3
Format/Info                      : Audio Coding 3
Format_Settings_ModeExtension    : CM (complete main)
Codec ID                         : 2000
Duration                         : 2h 11mn
Bit rate mode                    : Constant
Bit rate                         : 448 Kbps
Channel(s)                       : 6 channels
Channel positions                : Front: L C R, Side: L R, LFE
Sampling rate                    : 48.0 KHz
Stream size                      : 421 MiB (28%)
Alignment                        : Split accross interleaves
Interleave, duration             : 42 ms (1.00 video frame)
Interleave, preload duration     : 500 ms

Brought to you by 
2Lions Team

meer zien??
                   
Kom dan eens kijken op ons NIEUWE forum 
            
http://www.2lions-site.nl/

2Lions the site to be for all your Dutch MOVIES and more

******************************************

DON T HIT AND RUN Niet gelijk afhaken als de FILM binnen is blijf seeden. 

Don`t quit after you finished the download, but keep seeding

There are fake torrents from uploaders who use our team name.
Those are not ours, or members from our team.
We 2Lions-Team are not responsible for the fake posts on our name

Wij 2Lions-Team zijn niet verantwoordelijk voor die zieke FAKE posten die op onze naam worden gedaan

Please check our site !!!

to the fakers , get a life !!!